<svg width="40" height="40" viewBox="0 0 40 40" fill="none" xmlns="http://www.w3.org/2000/svg">
<rect width="40" height="40" rx="4" fill="#2B2F39"/>
<mask id="mask0" mask-type="alpha" maskUnits="userSpaceOnUse" x="7" y="7" width="26" height="26">
<path d="M19.9416 32.7624C26.9519 32.7624 32.6349 27.0794 32.6349 20.0691C32.6349 13.0588 26.9519 7.37585 19.9416 7.37585C12.9313 7.37585 7.24838 13.0588 7.24838 20.0691C7.24838 27.0794 12.9313 32.7624 19.9416 32.7624Z" fill="white"/>
</mask>
<g mask="url(#mask0)">
<path d="M24.0957 13.7878C22.0593 10.9627 18.7403 9.1236 14.9917 9.1236C12.3225 9.1236 9.871 10.0561 7.94534 11.6132" stroke="white" stroke-width="2" stroke-linecap="round" stroke-linejoin="round"/>
<path d="M16.8573 12.4451C13.3788 12.6143 10.0288 14.3962 7.98716 17.54C6.53337 19.7787 5.98028 22.3425 6.23734 24.8056" stroke="white" stroke-width="2" stroke-linecap="round" stroke-linejoin="round"/>
<path d="M13.067 16.6742C10.727 19.2535 9.61815 22.8824 10.3975 26.549C10.9525 29.16 12.3743 31.364 14.2977 32.9239" stroke="white" stroke-width="2" stroke-linecap="round" stroke-linejoin="round"/>
<path d="M13.5341 24.0647C14.4228 27.4319 16.8623 30.3383 20.3619 31.6816C22.8538 32.6382 25.4767 32.6462 27.8324 31.8826" stroke="white" stroke-width="2" stroke-linecap="round" stroke-linejoin="round"/>
<path d="M19.557 27.4958C22.781 28.8125 26.5703 28.6133 29.7493 26.6268C32.0129 25.2123 33.5977 23.1224 34.4057 20.7816" stroke="white" stroke-width="2" stroke-linecap="round" stroke-linejoin="round"/>
<path d="M25.3269 24.5888C28.4668 23.4051 30.8792 20.9009 31.5722 17.6408C32.0657 15.3193 31.6067 12.9933 30.4397 10.9948" stroke="white" stroke-width="2" stroke-linecap="round" stroke-linejoin="round"/>
<path d="M27.5013 18.0507C27.9989 14.6038 26.889 10.9753 24.1925 8.37134C22.2724 6.51711 19.8612 5.48498 17.3944 5.26735" stroke="white" stroke-width="2" stroke-linecap="round" stroke-linejoin="round"/>
</g>
</svg>
