<svg width="16" height="16" viewBox="0 0 16 16" fill="none" xmlns="http://www.w3.org/2000/svg">
<path fill-rule="evenodd" clip-rule="evenodd" d="M4.14645 11.2175C3.95118 11.4128 3.95118 11.7294 4.14645 11.9246C4.34171 12.1199 4.65829 12.1199 4.85355 11.9246L8.03552 8.74265L11.2175 11.9246C11.4128 12.1199 11.7294 12.1199 11.9246 11.9246C12.1199 11.7294 12.1199 11.4128 11.9246 11.2175L8.74263 8.03554L11.9246 4.85355C12.1199 4.65829 12.1199 4.34171 11.9246 4.14645C11.7294 3.95118 11.4128 3.95118 11.2175 4.14645L8.03552 7.32844L4.85356 4.14647C4.65829 3.95121 4.34171 3.95121 4.14645 4.14647C3.95119 4.34173 3.95119 4.65831 4.14645 4.85358L7.32842 8.03554L4.14645 11.2175Z" fill="#4C5A67"/>
</svg>
