<svg width="12" height="13" viewBox="0 0 12 13" fill="none" xmlns="http://www.w3.org/2000/svg">
<path d="M11.4875 12.0017C11.3572 12.0017 11.2269 11.9537 11.1241 11.8508L7.64013 8.36689C7.44125 8.16801 7.44125 7.83882 7.64013 7.63993C7.83902 7.44105 8.16821 7.44105 8.36709 7.63993L11.851 11.1239C12.0499 11.3227 12.0499 11.6519 11.851 11.8508C11.7481 11.9537 11.6178 12.0017 11.4875 12.0017Z" fill="#939393"/>
<path d="M4.90356 9.80711C2.20146 9.80711 0 7.60566 0 4.90356C0 2.20146 2.20146 0 4.90356 0C7.60566 0 9.80711 2.20146 9.80711 4.90356C9.80711 7.60566 7.60566 9.80711 4.90356 9.80711ZM4.90356 1.02872C2.76382 1.02872 1.02872 2.76382 1.02872 4.90356C1.02872 7.04329 2.76382 8.7784 4.90356 8.7784C7.04329 8.7784 8.7784 7.04329 8.7784 4.90356C8.7784 2.76382 7.04329 1.02872 4.90356 1.02872Z" fill="#939393"/>
</svg>
