<svg width="22" height="20" fill="none"><g clip-path="url(#clip0)"><path d="M.506-.007l-.074 19.93L21.073 20 21.148.07.506-.007z" fill="#fff" fill-opacity=".01"/><path d="M10.786 19.25c-5.282 0-9.58-4.15-9.58-9.25S5.504.75 10.786.75s9.58 4.15 9.58 9.25-4.298 9.25-9.58 9.25zm0-17c-4.423 0-8.027 3.48-8.027 7.75s3.604 7.75 8.027 7.75c4.422 0 8.027-3.48 8.027-7.75s-3.605-7.75-8.027-7.75z" fill="#7EDCE2"/><path d="M9.657 9.66a.782.782 0 01-.55-.22L5.99 6.43c-.3-.29-.3-.77 0-1.06.3-.29.798-.29 1.098 0l3.118 3.01c.3.29.3.77 0 1.06a.783.783 0 01-.55.22z" fill="#7EDCE2"/><path d="M10.786 12.3c-1.315 0-2.382-1.03-2.382-2.3 0-1.27 1.067-2.3 2.382-2.3 1.315 0 2.382 1.03 2.382 2.3 0 1.27-1.067 2.3-2.382 2.3zm0-3.1c-.456 0-.829.36-.829.8 0 .44.373.8.829.8.456 0 .829-.36.829-.8 0-.44-.373-.8-.829-.8zM10.786 5.73c-.425 0-.777-.34-.777-.75V3.82c0-.41.352-.75.777-.75.425 0 .777.34.777.75v1.16c0 .41-.352.75-.777.75zM14.463 7.2a.783.783 0 01-.55-.22c-.3-.29-.3-.77 0-1.06l.85-.82c.3-.29.797-.29 1.098 0 .3.29.3.77 0 1.06l-.85.82a.765.765 0 01-.548.22zM17.187 10.75h-1.202c-.424 0-.776-.34-.776-.75s.352-.75.776-.75h1.202c.424 0 .776.34.776.75s-.341.75-.776.75zM5.587 10.75H4.385c-.424 0-.777-.34-.777-.75s.342-.75.777-.75h1.202c.424 0 .776.34.776.75s-.352.75-.776.75z" fill="#7EDCE2"/></g><defs><clipPath id="clip0"><path fill="#fff" transform="translate(.429)" d="M0 0h20.714v20H0z"/></clipPath></defs></svg>