<svg width="20" height="20" viewBox="0 0 20 20" fill="none" xmlns="http://www.w3.org/2000/svg">
<path d="M12.4663 15.0275H16.5872L15.4292 13.8695C15.2737 13.714 15.1504 13.5293 15.0662 13.3261C14.9821 13.1229 14.9388 12.9051 14.9389 12.6852V9.09341C14.939 8.07055 14.622 7.07281 14.0316 6.23755C13.4412 5.40228 12.6064 4.77057 11.6421 4.4294V4.14835C11.6421 3.71118 11.4685 3.29192 11.1594 2.98279C10.8502 2.67367 10.431 2.5 9.9938 2.5C9.55663 2.5 9.13736 2.67367 8.82824 2.98279C8.51911 3.29192 8.34545 3.71118 8.34545 4.14835V4.4294C6.42512 5.10852 5.04874 6.94066 5.04874 9.09341V12.686C5.04874 13.1294 4.87237 13.5555 4.55836 13.8695L3.40039 15.0275H7.52127M12.4663 15.0275H7.52127M12.4663 15.0275C12.4663 15.6832 12.2058 16.3121 11.7421 16.7758C11.2785 17.2395 10.6496 17.5 9.9938 17.5C9.33804 17.5 8.70914 17.2395 8.24546 16.7758C7.78177 16.3121 7.52127 15.6832 7.52127 15.0275" stroke="#192734" stroke-linecap="round" stroke-linejoin="round"/>
<path d="M14 6.75C15.5188 6.75 16.75 5.51878 16.75 4C16.75 2.48122 15.5188 1.25 14 1.25C12.4812 1.25 11.25 2.48122 11.25 4C11.25 5.51878 12.4812 6.75 14 6.75Z" fill="#FF5858" stroke="white" stroke-width="1.5"/>
</svg>
