<svg width="20" height="20" fill="none"><g clip-path="url(#clip0)"><path d="M.078-.007l-.075 19.93 19.93.074.075-19.93L.078-.007z" fill="#fff" fill-opacity=".01"/><path d="M12.28 18.25H2.17c-.69 0-1.25-.56-1.25-1.25v-1.44c0-.83.56-1.56 1.35-1.79l2.61-.75.14-.97a4.089 4.089 0 01-1.88-3.44V6.82c.03-1.09.49-2.1 1.28-2.85s1.83-1.15 2.92-1.11c2.26.13 3.99 1.99 3.96 4.23v1.52c0 1.4-.72 2.69-1.88 3.44l.14.97 2.61.75c.79.23 1.35.96 1.35 1.79V17c.01.69-.55 1.25-1.24 1.25zm-9.86-1.5h9.61v-1.19c0-.16-.11-.3-.26-.35l-2.74-.78c-.49-.14-.86-.56-.93-1.07l-.23-1.61c-.05-.33.13-.65.43-.79.92-.42 1.51-1.34 1.51-2.35V7.09a2.671 2.671 0 00-2.52-2.72c-.67-.03-1.33.23-1.83.7s-.79 1.11-.81 1.8v1.75c0 1.01.59 1.93 1.51 2.35.3.14.48.46.43.79l-.23 1.61c-.07.51-.44.93-.94 1.07l-2.73.78c-.15.04-.26.19-.26.35v1.18h-.01z" fill="#7EDCE2"/><path d="M17.83 18.25H15c-.41 0-.75-.34-.75-.75s.34-.75.75-.75h2.58v-2.27c0-.17-.11-.31-.27-.35l-3.24-.81c-.52-.13-.9-.55-.98-1.08l-.23-1.6c-.05-.33.13-.65.43-.79.92-.42 1.51-1.34 1.51-2.35V5.97a2.664 2.664 0 00-2.52-2.72c-.46-.02-.94.1-1.35.34-.36.21-.82.09-1.02-.27a.738.738 0 01.27-1.02c.66-.38 1.41-.57 2.17-.54 2.26.13 3.99 1.99 3.96 4.23V7.5c0 1.4-.72 2.69-1.88 3.44l.14.96 3.11.78c.83.21 1.41.95 1.41 1.81V17c-.01.69-.57 1.25-1.26 1.25z" fill="#7EDCE2"/></g><defs><clipPath id="clip0"><path fill="#fff" d="M0 0h20v20H0z"/></clipPath></defs></svg>