<svg width="20" height="20" fill="none" xmlns="http://www.w3.org/2000/svg"><g clip-path="url(#clip0)"><path d="M.078-.007l-.075 19.93 19.93.074.075-19.93L.078-.007z" fill="#fff" fill-opacity=".01"/><path d="M18 19.25H2c-.69 0-1.25-.56-1.25-1.25V9.13c0-.44.23-.84.61-1.07.38-.23.84-.24 1.23-.03L10 11.98l7.41-3.95c.39-.21.85-.2 1.23.03s.61.63.61 1.07V18c0 .69-.56 1.25-1.25 1.25zm-15.75-1.5h15.5v-8.2l-7.16 3.82c-.37.2-.81.2-1.18 0L2.25 9.55v8.2zM16.23 7.35c-.41 0-.75-.34-.75-.75V2.25H4.52V6.6c0 .41-.34.75-.75.75s-.75-.34-.75-.75V2c0-.69.56-1.25 1.25-1.25h11.47c.69 0 1.25.56 1.25 1.25v4.6c-.01.41-.34.75-.76.75z" fill="#7EDCE2"/><path d="M12.83 5.65H7.17c-.41 0-.75-.34-.75-.75s.34-.75.75-.75h5.67c.41 0 .75.34.75.75s-.34.75-.76.75zM12.83 9.05H7.17c-.41 0-.75-.34-.75-.75s.34-.75.75-.75h5.67c.41 0 .75.34.75.75s-.34.75-.76.75z" fill="#7EDCE2"/></g><defs><clipPath id="clip0"><path fill="#fff" d="M0 0h20v20H0z"/></clipPath></defs></svg>