<svg width="22" height="20" fill="none"><g clip-path="url(#clip0)"><path d="M.506-.007l-.074 19.93L21.073 20 21.148.07.506-.007z" fill="#fff" fill-opacity=".01"/><path d="M10.786 14.39a.782.782 0 01-.549-.22l-3.77-3.64c-.3-.29-.3-.77 0-1.06.3-.29.797-.29 1.098 0l3.22 3.11 3.222-3.11c.3-.29.798-.29 1.098 0 .3.29.3.77 0 1.06l-3.77 3.64a.782.782 0 01-.55.22z" fill="#7EDCE2"/><path d="M10.786 14.39c-.425 0-.777-.34-.777-.75V1.5c0-.41.352-.75.777-.75.424 0 .776.34.776.75v12.14c0 .42-.352.75-.776.75z" fill="#7EDCE2"/><path d="M19.01 19.25H2.561c-.362 0-.714-.15-.963-.42a1.214 1.214 0 01-.321-.97l1.14-9.93c.072-.63.62-1.11 1.283-1.11h3.315c.424 0 .777.34.777.75s-.353.75-.777.75H3.94l-1.088 9.43H18.72l-1.087-9.43h-3.076c-.425 0-.777-.34-.777-.75s.352-.75.777-.75h3.314c.663 0 1.212.48 1.284 1.11l1.14 9.93c.041.35-.073.71-.322.97-.238.27-.59.42-.963.42z" fill="#7EDCE2"/></g><defs><clipPath id="clip0"><path fill="#fff" transform="translate(.429)" d="M0 0h20.714v20H0z"/></clipPath></defs></svg>