<svg width="17" height="16" viewBox="0 0 17 16" fill="none" xmlns="http://www.w3.org/2000/svg">
<path d="M8.11549 3.81011L8.5 4.27271L8.88451 3.81011C8.93205 3.75293 8.9672 3.70826 8.99682 3.67063C9.04775 3.60592 9.0823 3.56202 9.13527 3.51104C10.5359 2.16299 12.8156 2.16299 14.2163 3.51104C14.6673 3.94519 14.9108 4.75159 14.9062 5.77791C14.8991 7.34633 14.182 8.6955 13.0713 9.92524C11.9549 11.1612 10.4773 12.2366 9.01608 13.2562C8.70943 13.4702 8.29057 13.4702 7.98393 13.2562C6.5227 12.2366 5.04513 11.1612 3.92871 9.92524C2.81795 8.69549 2.1009 7.34632 2.09381 5.7779C2.08918 4.75158 2.33266 3.94519 2.78374 3.51104C4.18437 2.16299 6.4641 2.16299 7.86473 3.51104C7.9177 3.56202 7.95225 3.60592 8.00318 3.67063C8.0328 3.70826 8.06795 3.75292 8.11549 3.81011Z" stroke="#74808B"/>
</svg>
