<svg width="20" height="16" fill="none" xmlns="http://www.w3.org/2000/svg"><path d="M11.36 15.08a1.3 1.3 0 01-.51-.11c-.46-.2-.74-.64-.74-1.14v-2.79A9.41 9.41 0 003.1 14.2c-.36.4-.93.52-1.43.3-.5-.23-.8-.74-.74-1.28.58-5.03 3.91-8.02 9.18-8.27V2.17c0-.5.28-.94.74-1.14.46-.2.97-.12 1.34.21l6.48 5.83c.26.24.41.58.41.93 0 .35-.15.69-.41.93l-6.48 5.83c-.24.21-.53.32-.83.32zm-1.22-5.54c.25 0 .5.01.76.03.39.03.7.35.7.75v2.95L17.46 8 11.6 2.73v2.95c0 .41-.33.75-.75.75-2.73 0-7.31.83-8.32 6.2 2.05-1.99 4.76-3.09 7.61-3.09zM1.98 13.2c0 .01 0 .01 0 0 0 .01 0 .01 0 0z" fill="#7EDCE2"/></svg>