<svg width="10" height="8" viewBox="0 0 10 8" fill="none" xmlns="http://www.w3.org/2000/svg">
                                                <path
                                                    d="M5.6002 8.00002H4.0002C3.5586 8.00002 3.2002 7.64162 3.2002 7.20002C3.2002 6.75842 3.5586 6.40002 4.0002 6.40002H5.6002C6.0418 6.40002 6.4002 6.75842 6.4002 7.20002C6.4002 7.64162 6.0418 8.00002 5.6002 8.00002Z"
                                                    fill="#939393" />
                                                <path
                                                    d="M7.19961 4.80001H2.39961C1.95801 4.80001 1.59961 4.44161 1.59961 4.00001C1.59961 3.55841 1.95801 3.20001 2.39961 3.20001H7.19961C7.64121 3.20001 7.99961 3.55841 7.99961 4.00001C7.99961 4.44161 7.64121 4.80001 7.19961 4.80001Z"
                                                    fill="#939393" />
                                                <path
                                                    d="M8.8 1.6H0.8C0.3584 1.6 0 1.2416 0 0.8C0 0.3584 0.3584 0 0.8 0H8.8C9.2416 0 9.6 0.3584 9.6 0.8C9.6 1.2416 9.2416 1.6 8.8 1.6Z"
                                                    fill="#939393" />
                                            </svg>
                                        