<svg width="14" height="10" viewBox="0 0 14 10" fill="none" xmlns="http://www.w3.org/2000/svg">
<path fill-rule="evenodd" clip-rule="evenodd" d="M1.66699 0.25C1.25278 0.25 0.916992 0.585786 0.916992 1C0.916992 1.41421 1.25278 1.75 1.66699 1.75H1.67366C2.08787 1.75 2.42366 1.41421 2.42366 1C2.42366 0.585786 2.08787 0.25 1.67366 0.25H1.66699ZM4.33301 0.5C4.05687 0.5 3.83301 0.723858 3.83301 1C3.83301 1.27614 4.05687 1.5 4.33301 1.5H12.9997C13.2758 1.5 13.4997 1.27614 13.4997 1C13.4997 0.723858 13.2758 0.5 12.9997 0.5H4.33301ZM4.33301 4.5C4.05687 4.5 3.83301 4.72386 3.83301 5C3.83301 5.27614 4.05687 5.5 4.33301 5.5H12.9997C13.2758 5.5 13.4997 5.27614 13.4997 5C13.4997 4.72386 13.2758 4.5 12.9997 4.5H4.33301ZM3.83301 9C3.83301 8.72386 4.05687 8.5 4.33301 8.5H12.9997C13.2758 8.5 13.4997 8.72386 13.4997 9C13.4997 9.27614 13.2758 9.5 12.9997 9.5H4.33301C4.05687 9.5 3.83301 9.27614 3.83301 9ZM0.916992 5C0.916992 4.58579 1.25278 4.25 1.66699 4.25H1.67366C2.08787 4.25 2.42366 4.58579 2.42366 5C2.42366 5.41421 2.08787 5.75 1.67366 5.75H1.66699C1.25278 5.75 0.916992 5.41421 0.916992 5ZM1.66699 8.25C1.25278 8.25 0.916992 8.58579 0.916992 9C0.916992 9.41421 1.25278 9.75 1.66699 9.75H1.67366C2.08787 9.75 2.42366 9.41421 2.42366 9C2.42366 8.58579 2.08787 8.25 1.67366 8.25H1.66699Z" fill="#192734"/>
</svg>
