<svg width="20" height="18" fill="none"><path d="M3.94 6.29a2.77 2.77 0 110-5.54 2.77 2.77 0 010 5.54zm0-4.04c-.7 0-1.27.57-1.27 1.27 0 .7.57 1.27 1.27 1.27.7 0 1.27-.57 1.27-1.27 0-.7-.57-1.27-1.27-1.27zM5.46 17.25H1.85C1.16 17.25.6 16.69.6 16v-5.85c.06-1.67 1.39-3 3.03-3.06 1.59 0 2.3.96 3 1.89.6.81 1.22 1.64 2.52 2.21.38.17.55.61.39.99a.76.76 0 01-.99.39c-1.67-.73-2.47-1.81-3.12-2.69-.67-.89-1-1.28-1.78-1.28-.83.03-1.53.72-1.56 1.58v5.57h3.12v-3.29c0-.41.34-.75.75-.75s.75.34.75.75V16c0 .69-.56 1.25-1.25 1.25zM18.15 17.25h-3.62c-.69 0-1.25-.56-1.25-1.25v-3.54c0-.41.34-.75.75-.75s.75.34.75.75v3.29h3.12v-5.6c-.03-.83-.72-1.53-1.58-1.56-.75 0-1.08.4-1.74 1.29-.65.87-1.46 1.96-3.12 2.69a.751.751 0 11-.6-1.38c1.3-.57 1.92-1.4 2.52-2.21.69-.93 1.41-1.89 2.97-1.89 1.67.06 3 1.39 3.06 3.03V16c-.01.69-.57 1.25-1.26 1.25zM16.06 6.29a2.77 2.77 0 110-5.54 2.77 2.77 0 010 5.54zm0-4.04c-.7 0-1.27.57-1.27 1.27 0 .7.57 1.27 1.27 1.27.7 0 1.27-.57 1.27-1.27 0-.7-.57-1.27-1.27-1.27z" fill="#7EDCE2"/></svg>