<svg width="20" height="20" fill="none" xmlns="http://www.w3.org/2000/svg"><g clip-path="url(#clip0)"><path d="M.078-.007l-.075 19.93 19.93.074.075-19.93L.078-.007z" fill="#fff" fill-opacity=".01"/><path d="M16.87 19.25H3.13c-.69 0-1.25-.56-1.25-1.25V3.13c0-.69.56-1.25 1.25-1.25H4.9c.41 0 .75.34.75.75s-.34.75-.75.75H3.38v14.37h13.23V3.38H15.1c-.41 0-.75-.34-.75-.75s.34-.75.75-.75h1.77c.69 0 1.25.56 1.25 1.25V18c0 .69-.56 1.25-1.25 1.25z" fill="#7EDCE2"/><path d="M12.33 4.52H7.67c-.69 0-1.25-.56-1.25-1.25V2c0-.69.56-1.25 1.25-1.25h4.67c.69 0 1.25.56 1.25 1.25v1.27c-.01.69-.57 1.25-1.26 1.25zm-4.41-1.5h4.17v-.77H7.92v.77zM8.87 14.15c-.19 0-.38-.07-.53-.22l-2.27-2.27a.754.754 0 010-1.06c.29-.29.77-.29 1.06 0l1.74 1.74 4-4c.29-.29.77-.29 1.06 0 .29.29.29.77 0 1.06L9.4 13.93c-.15.15-.34.22-.53.22z" fill="#7EDCE2"/></g><defs><clipPath id="clip0"><path fill="#fff" d="M0 0h20v20H0z"/></clipPath></defs></svg>