<svg width="20" height="20" viewBox="0 0 20 20" fill="none" xmlns="http://www.w3.org/2000/svg">
<g clip-path="url(#clip0)">
<path d="M0.0775048 -0.0073452L0.00280762 19.9227L19.9328 19.9974L20.0075 0.0673519L0.0775048 -0.0073452Z" fill="white" fill-opacity="0.01"/>
<path d="M10 9.4C9.82001 9.4 9.64001 9.36 9.47001 9.29L1.19001 5.56C0.810014 5.39 0.650014 4.94 0.820014 4.57C0.990014 4.19 1.44001 4.02 1.81001 4.19L10 7.88L18.19 4.19C18.57 4.02 19.01 4.19 19.18 4.57C19.35 4.95 19.18 5.39 18.8 5.56L10.52 9.29C10.36 9.36 10.18 9.4 10 9.4Z" fill="#7EDCE2"/>
<path d="M10 19.65C9.59 19.65 9.25 19.31 9.25 18.9V8.7C9.25 8.29 9.59 7.95 10 7.95C10.41 7.95 10.75 8.29 10.75 8.7V18.9C10.75 19.31 10.41 19.65 10 19.65Z" fill="#7EDCE2"/>
<path d="M10 19.6C9.82 19.6 9.64 19.56 9.48 19.49L1.5 15.9C1.04 15.69 0.75 15.24 0.75 14.74V5.21C0.75 4.71 1.04 4.25 1.5 4.05L9.48 0.460004C9.81 0.310004 10.19 0.310004 10.53 0.460004L18.51 4.05C18.97 4.26 19.26 4.71 19.26 5.21V14.73C19.26 15.23 18.97 15.69 18.51 15.89L10.53 19.48C10.36 19.56 10.18 19.6 10 19.6ZM2.25 14.59L10 18.08L17.75 14.59V5.36L10 1.87L2.25 5.36V14.59Z" fill="#7EDCE2"/>
</g>
<defs>
<clipPath id="clip0">
<rect width="20" height="20" fill="white"/>
</clipPath>
</defs>
</svg>
