<svg width="20" height="20" fill="none"><g clip-path="url(#clip0)"><path d="M.078-.007l-.075 19.93 19.93.074.075-19.93L.078-.007z" fill="#fff" fill-opacity=".01"/><path d="M13.47 19.25H3.13c-.69 0-1.25-.56-1.25-1.25V5.4c0-.69.56-1.25 1.25-1.25h10.33c.69 0 1.25.56 1.25 1.25V18c.01.69-.55 1.25-1.24 1.25zm-10.09-1.5h9.83V5.65H3.38v12.1z" fill="#7EDCE2"/><path d="M17.37 16.98c-.41 0-.75-.34-.75-.75V2.25H4.9c-.41 0-.75-.34-.75-.75s.34-.75.75-.75h11.97c.69 0 1.25.56 1.25 1.25v14.23c0 .42-.34.75-.75.75z" fill="#7EDCE2"/><path d="M10.57 9.05H6.03c-.41 0-.75-.34-.75-.75s.34-.75.75-.75h4.53c.41 0 .75.34.75.75s-.33.75-.74.75zM10.57 12.45H6.03c-.41 0-.75-.34-.75-.75s.34-.75.75-.75h4.53c.41 0 .75.34.75.75s-.33.75-.74.75zM10.57 15.85H6.03c-.41 0-.75-.34-.75-.75s.34-.75.75-.75h4.53c.41 0 .75.34.75.75s-.33.75-.74.75z" fill="#7EDCE2"/></g><defs><clipPath id="clip0"><path fill="#fff" d="M0 0h20v20H0z"/></clipPath></defs></svg>