<svg width="16" height="20" viewBox="0 0 16 20" fill="none" xmlns="http://www.w3.org/2000/svg">
<path d="M14.6666 7.49996C14.6666 12.0833 7.99996 18.75 7.99996 18.75C7.99996 18.75 1.33329 12.0833 1.33329 7.49996C1.32517 6.62222 1.49206 5.75166 1.82422 4.93916C2.15637 4.12665 2.64713 3.38849 3.26781 2.76781C3.88849 2.14713 4.62665 1.65637 5.43916 1.32422C6.25166 0.992063 7.12222 0.82517 7.99996 0.833291C8.8777 0.82517 9.74825 0.992063 10.5608 1.32422C11.3733 1.65637 12.1114 2.14713 12.7321 2.76781C13.3528 3.38849 13.8435 4.12665 14.1757 4.93916C14.5079 5.75166 14.6747 6.62222 14.6666 7.49996Z" stroke="#49494C" stroke-width="1.5" stroke-miterlimit="10" stroke-linecap="round" stroke-linejoin="round"/>
<circle cx="8" cy="7.5" r="2.5" stroke="#49494C" stroke-width="1.5"/>
</svg>
