<svg width="18" height="20" fill="none"><path d="M9 16.96c-.21 0-.4-.08-.54-.23-.6-.63-5.87-6.28-5.87-9.82C2.59 3.05 5.85.75 9.01.75s6.42 2.3 6.42 6.16c0 3.54-5.27 9.19-5.87 9.82-.16.15-.35.23-.56.23zM9 2.25c-2.42 0-4.92 1.74-4.92 4.66 0 2.23 3.17 6.24 4.92 8.2 1.75-1.96 4.92-5.96 4.92-8.2 0-2.92-2.5-4.66-4.92-4.66z" fill="#7EDCE2"/><path d="M9 9.62c-1.35 0-2.45-1.1-2.45-2.45S7.65 4.72 9 4.72s2.45 1.1 2.45 2.45S10.35 9.62 9 9.62zm0-3.4c-.52 0-.95.43-.95.95s.43.95.95.95.95-.43.95-.95A.95.95 0 009 6.22zM9 19.25c-3.23 0-8.68-.64-8.68-3.02 0-1.61 2.5-2.36 4.59-2.7.41-.07.79.21.86.62.07.41-.21.79-.62.86-2.57.43-3.29 1.09-3.34 1.24.15.4 2.5 1.5 7.19 1.5s7.04-1.1 7.19-1.54c-.05-.12-.77-.78-3.34-1.2a.747.747 0 01-.62-.86c.07-.41.46-.69.86-.62 2.1.35 4.59 1.1 4.59 2.7 0 2.38-5.45 3.02-8.68 3.02z" fill="#7EDCE2"/></svg>