<svg width="32" height="32" viewBox="0 0 32 32" fill="none" xmlns="http://www.w3.org/2000/svg">
<mask id="mask0" mask-type="alpha" maskUnits="userSpaceOnUse" x="9" y="0" width="20" height="7">
<path fill-rule="evenodd" clip-rule="evenodd" d="M28.6467 6.20473C25.7192 2.43093 21.1453 0 15.9998 0C13.6275 0 11.3795 0.520331 9.35449 1.44556C9.68448 1.42543 10.0173 1.41167 10.3529 1.41167C14.6146 1.41167 18.4845 3.08121 21.3517 5.79805C22.0644 5.70122 22.7901 5.64694 23.5293 5.64694C25.3278 5.64694 27.0547 5.94788 28.6689 6.49522C28.7571 6.52503 28.8463 6.55357 28.9334 6.58491C28.8396 6.45649 28.7441 6.3301 28.6467 6.20473Z" fill="white"/>
</mask>
<g mask="url(#mask0)">
<path fill-rule="evenodd" clip-rule="evenodd" d="M28.6467 6.20473C25.7192 2.43093 21.1453 0 15.9998 0C13.6275 0 11.3795 0.520331 9.35449 1.44556C9.68448 1.42543 10.0173 1.41167 10.3529 1.41167C14.6146 1.41167 18.4845 3.08121 21.3517 5.79805C22.0644 5.70122 22.7901 5.64694 23.5293 5.64694C25.3278 5.64694 27.0547 5.94788 28.6689 6.49522C28.7571 6.52503 28.8463 6.55357 28.9334 6.58491C28.8396 6.45649 28.7441 6.3301 28.6467 6.20473Z" fill="url(#paint0_linear)"/>
</g>
<mask id="mask1" mask-type="alpha" maskUnits="userSpaceOnUse" x="16" y="5" width="16" height="27">
<path fill-rule="evenodd" clip-rule="evenodd" d="M28.9333 6.58494C28.8462 6.5536 28.757 6.52506 28.6688 6.49525C27.0546 5.94791 25.3277 5.64697 23.5292 5.64697C22.79 5.64697 22.0643 5.70125 21.3516 5.79808C24.1061 8.40789 25.9324 11.9845 26.2853 15.9868C26.3276 16.4567 26.3523 16.9309 26.3523 17.4115C26.3523 23.8766 22.5158 29.4415 16.9976 31.9655C25.369 31.45 31.9998 24.5009 31.9998 16.0001C31.9998 12.4796 30.86 9.22686 28.9333 6.58494Z" fill="white"/>
</mask>
<g mask="url(#mask1)">
<path fill-rule="evenodd" clip-rule="evenodd" d="M28.9333 6.58494C28.8462 6.5536 28.757 6.52506 28.6688 6.49525C27.0546 5.94791 25.3277 5.64697 23.5292 5.64697C22.79 5.64697 22.0643 5.70125 21.3516 5.79808C24.1061 8.40789 25.9324 11.9845 26.2853 15.9868C26.3276 16.4567 26.3523 16.9309 26.3523 17.4115C26.3523 23.8766 22.5158 29.4415 16.9976 31.9655C25.369 31.45 31.9998 24.5009 31.9998 16.0001C31.9998 12.4796 30.86 9.22686 28.9333 6.58494Z" fill="url(#paint1_linear)"/>
</g>
<mask id="mask2" mask-type="alpha" maskUnits="userSpaceOnUse" x="0" y="17" width="11" height="15">
<path fill-rule="evenodd" clip-rule="evenodd" d="M0.0585938 17.324C0.579944 23.6829 4.81572 28.9876 10.5957 31.0618C8.85912 28.6805 7.76545 25.8027 7.56593 22.6807C4.5632 21.6622 1.96231 19.7783 0.0585938 17.324Z" fill="white"/>
</mask>
<g mask="url(#mask2)">
<path fill-rule="evenodd" clip-rule="evenodd" d="M0.0585938 17.324C0.579944 23.6829 4.81572 28.9876 10.5957 31.0618C8.85912 28.6805 7.76545 25.8027 7.56593 22.6807C4.5632 21.6622 1.96231 19.7783 0.0585938 17.324Z" fill="url(#paint2_linear)"/>
</g>
<mask id="mask3" mask-type="alpha" maskUnits="userSpaceOnUse" x="7" y="15" width="20" height="17">
<path fill-rule="evenodd" clip-rule="evenodd" d="M26.3524 17.4115C26.3524 16.9309 26.3276 16.4567 26.2853 15.9868C23.46 20.5144 18.4363 23.5291 12.7055 23.5291C10.907 23.5291 9.17991 23.2281 7.56592 22.6808C7.76544 25.8028 8.8591 28.6806 10.5957 31.0619C12.2836 31.6676 14.1024 31.9999 15.9998 31.9999C16.3351 31.9999 16.6669 31.9858 16.9976 31.9655C22.5159 29.4415 26.3524 23.8766 26.3524 17.4115Z" fill="white"/>
</mask>
<g mask="url(#mask3)">
<path fill-rule="evenodd" clip-rule="evenodd" d="M26.3524 17.4115C26.3524 16.9309 26.3276 16.4567 26.2853 15.9868C23.46 20.5144 18.4363 23.5291 12.7055 23.5291C10.907 23.5291 9.17991 23.2281 7.56592 22.6808C7.76544 25.8028 8.8591 28.6806 10.5957 31.0619C12.2836 31.6676 14.1024 31.9999 15.9998 31.9999C16.3351 31.9999 16.6669 31.9858 16.9976 31.9655C22.5159 29.4415 26.3524 23.8766 26.3524 17.4115Z" fill="url(#paint3_linear)"/>
</g>
<mask id="mask4" mask-type="alpha" maskUnits="userSpaceOnUse" x="0" y="1" width="22" height="22">
<path fill-rule="evenodd" clip-rule="evenodd" d="M7.56595 22.6806C7.54403 22.3381 7.52925 21.9946 7.52925 21.6468C7.52925 13.5486 13.5459 6.86045 21.3517 5.79787C18.4845 3.08104 14.6146 1.4115 10.3529 1.4115C10.0173 1.4115 9.68447 1.42526 9.35449 1.44539C3.83623 3.96933 0 9.53447 0 15.9999C0 16.4463 0.0229333 16.8869 0.0586073 17.3239C1.96233 19.7783 4.56321 21.6621 7.56595 22.6806Z" fill="white"/>
</mask>
<g mask="url(#mask4)">
<path fill-rule="evenodd" clip-rule="evenodd" d="M7.56595 22.6806C7.54403 22.3381 7.52925 21.9946 7.52925 21.6468C7.52925 13.5486 13.5459 6.86045 21.3517 5.79787C18.4845 3.08104 14.6146 1.4115 10.3529 1.4115C10.0173 1.4115 9.68447 1.42526 9.35449 1.44539C3.83623 3.96933 0 9.53447 0 15.9999C0 16.4463 0.0229333 16.8869 0.0586073 17.3239C1.96233 19.7783 4.56321 21.6621 7.56595 22.6806Z" fill="url(#paint4_linear)"/>
</g>
<defs>
<linearGradient id="paint0_linear" x1="9.35449" y1="6.58494" x2="28.9334" y2="6.58494" gradientUnits="userSpaceOnUse">
<stop stop-color="#FFD951"/>
<stop offset="1" stop-color="#EE8912"/>
</linearGradient>
<linearGradient id="paint1_linear" x1="16.9976" y1="31.9656" x2="31.9997" y2="31.9656" gradientUnits="userSpaceOnUse">
<stop stop-color="#FFD951"/>
<stop offset="1" stop-color="#EE8912"/>
</linearGradient>
<linearGradient id="paint2_linear" x1="0.0585938" y1="31.0618" x2="10.5957" y2="31.0618" gradientUnits="userSpaceOnUse">
<stop stop-color="#FFD951"/>
<stop offset="1" stop-color="#EE8912"/>
</linearGradient>
<linearGradient id="paint3_linear" x1="7.56592" y1="31.9999" x2="26.3523" y2="31.9999" gradientUnits="userSpaceOnUse">
<stop stop-color="#FFD951"/>
<stop offset="1" stop-color="#EE8912"/>
</linearGradient>
<linearGradient id="paint4_linear" x1="0" y1="22.6807" x2="21.3516" y2="22.6807" gradientUnits="userSpaceOnUse">
<stop stop-color="#FFD951"/>
<stop offset="1" stop-color="#EE8912"/>
</linearGradient>
</defs>
</svg>
