<svg width="22" height="20" fill="none"><g clip-path="url(#clip0)"><path d="M.506-.007l-.075 19.93L21.073 20 21.148.07.506-.007z" fill="#fff" fill-opacity=".01"/><path d="M13.748 14.18a.79.79 0 01-.549-.22l-2.413-2.33-2.413 2.33a.8.8 0 01-.85.16.751.751 0 01-.476-.69v-8c0-.41.352-.75.777-.75.424 0 .776.34.776.75v6.19l1.637-1.58a.822.822 0 011.098 0l1.636 1.58V5.43c0-.41.352-.75.777-.75.425 0 .777.34.777.75v8c0 .3-.187.58-.477.69a.846.846 0 01-.3.06z" fill="#7EDCE2"/><path d="M19.144 18.75H2.428c-.715 0-1.295-.56-1.295-1.25V5.61c0-.29.104-.58.3-.8L4.116 1.7c.248-.29.61-.45.994-.45h11.352c.383 0 .745.16.994.45l2.682 3.11c.197.22.3.51.3.8V17.5c0 .69-.58 1.25-1.294 1.25zm-16.457-1.5h16.198V5.7l-2.548-2.95H5.234L2.687 5.7v11.55z" fill="#7EDCE2"/><path d="M19.662 6.18H1.91c-.425 0-.777-.34-.777-.75s.352-.75.777-.75h17.752c.425 0 .777.34.777.75s-.342.75-.777.75z" fill="#7EDCE2"/></g><defs><clipPath id="clip0"><path fill="#fff" transform="translate(.429)" d="M0 0h20.714v20H0z"/></clipPath></defs></svg>