<svg width="20" height="20" fill="none"><g clip-path="url(#clip0)"><path d="M.078-.007l-.075 19.93 19.93.074.075-19.93L.078-.007z" fill="#fff" fill-opacity=".01"/><path d="M17.93 19.25H2.07c-.73 0-1.32-.59-1.32-1.32V3.2c0-.41.34-.75.75-.75s.75.34.75.75v14.55h15.5V3.2c0-.41.34-.75.75-.75s.75.34.75.75v14.73c0 .73-.59 1.32-1.32 1.32z" fill="#7EDCE2"/><path d="M10 13.02c-2.6 0-4.72-2.12-4.72-4.72 0-.41.34-.75.75-.75s.75.34.75.75c0 1.77 1.44 3.22 3.22 3.22 1.77 0 3.22-1.44 3.22-3.22 0-.41.34-.75.75-.75s.75.34.75.75c0 2.6-2.12 4.72-4.72 4.72zM16.8 5.65H3.2C1.85 5.65.75 4.55.75 3.2S1.85.75 3.2.75h13.6c1.35 0 2.45 1.1 2.45 2.45s-1.1 2.45-2.45 2.45zM3.2 2.25c-.52 0-.95.43-.95.95s.43.95.95.95h13.6c.52 0 .95-.43.95-.95s-.43-.95-.95-.95H3.2z" fill="#7EDCE2"/></g><defs><clipPath id="clip0"><path fill="#fff" d="M0 0h20v20H0z"/></clipPath></defs></svg>