<svg width="20" height="20" fill="none" xmlns="http://www.w3.org/2000/svg"><g clip-path="url(#clip0)"><path d="M.077-.003l-.075 19.93 19.93.075.076-19.93L.078-.003z" fill="#fff" fill-opacity=".01"/><path d="M17.977 19.223H2.033a1.246 1.246 0 01-1.246-1.246V2.033c0-.688.558-1.246 1.246-1.246h15.944c.688 0 1.246.558 1.246 1.246v15.944c0 .688-.558 1.246-1.246 1.246zM2.282 17.728h15.446V2.282H2.282v15.446z" fill="#7EDCE2"/><path d="M11.699 13.572a.74.74 0 01-.528-.219L7.185 9.367l-2.86 2.86a.752.752 0 01-1.057 0 .752.752 0 010-1.056l3.389-3.388a.771.771 0 011.056 0l3.986 3.986 3.986-3.986a.752.752 0 011.056 0 .752.752 0 010 1.056l-4.514 4.514a.74.74 0 01-.528.22z" fill="#7EDCE2"/></g><defs><clipPath id="clip0"><path fill="#fff" d="M0 0h20v20H0z"/></clipPath></defs></svg>