<svg width="20" height="20" fill="none"><path d="M8.372 2.53c.414-1.707 2.842-1.707 3.257 0a1.675 1.675 0 002.501 1.037c1.5-.914 3.218.803 2.304 2.304a1.677 1.677 0 001.036 2.5c1.707.415 1.707 2.843 0 3.258a1.675 1.675 0 00-1.037 2.501c.914 1.5-.803 3.218-2.304 2.304a1.676 1.676 0 00-2.5 1.036c-.415 1.707-2.843 1.707-3.257 0a1.676 1.676 0 00-2.502-1.037c-1.5.914-3.218-.803-2.304-2.304a1.676 1.676 0 00-1.036-2.5c-1.707-.415-1.707-2.843 0-3.257A1.676 1.676 0 003.567 5.87c-.914-1.5.803-3.218 2.304-2.304a1.675 1.675 0 002.5-1.036z" stroke="#7EDCE2" stroke-width="1.5" stroke-linecap="round" stroke-linejoin="round"/><path d="M12.917 10a2.917 2.917 0 11-5.834 0 2.917 2.917 0 015.834 0v0z" stroke="#7EDCE2" stroke-width="1.5" stroke-linecap="round" stroke-linejoin="round"/></svg>